<svg xmlns="http://www.w3.org/2000/svg" width="60" height="60" viewBox="0 0 60 60"><g fill="none" fill-rule="evenodd"><circle cx="30" cy="30" r="30" fill="#FF7A41"/><path fill="#FFF" d="M31.221 22.71c1.215 1.14 1.889 2.436 2.023 3.887h-2.295c-.26-1.102-.778-1.975-1.555-2.618-.776-.644-1.866-.966-3.27-.966-1.71 0-3.092.591-4.145 1.774-1.052 1.183-1.578 2.996-1.578 5.44 0 2.001.475 3.624 1.425 4.87.95 1.244 2.367 1.867 4.251 1.867 1.735 0 3.055-.656 3.962-1.967.48-.69.84-1.598 1.076-2.722h2.294c-.205 1.8-.883 3.308-2.034 4.526-1.38 1.466-3.24 2.199-5.582 2.199-2.018 0-3.713-.601-5.085-1.803C18.903 35.607 18 33.15 18 29.83c0-2.52.678-4.588 2.034-6.201C21.5 21.877 23.523 21 26.101 21c2.2 0 3.906.57 5.12 1.71zm5.523 4.05v-1.606c1.537-.148 2.61-.394 3.217-.739.607-.345 1.06-1.162 1.36-2.45H43v16.593h-2.27V26.76h-3.986z"/></g></svg>