<svg xmlns="http://www.w3.org/2000/svg" width="60" height="60" viewBox="0 0 60 60"><g fill="none" fill-rule="evenodd"><circle cx="30" cy="30" r="30" fill="#FF7A41"/><path fill="#FFF" d="M29.271 22.71c1.22 1.14 1.896 2.436 2.03 3.887h-2.303c-.26-1.102-.781-1.975-1.56-2.618-.78-.644-1.874-.966-3.283-.966-1.717 0-3.104.591-4.16 1.774-1.057 1.183-1.585 2.996-1.585 5.44 0 2.001.477 3.624 1.43 4.87.954 1.244 2.376 1.867 4.268 1.867 1.74 0 3.066-.656 3.976-1.967.483-.69.843-1.598 1.08-2.722h2.303c-.205 1.8-.886 3.308-2.041 4.526C28.04 38.267 26.173 39 23.823 39c-2.026 0-3.728-.601-5.105-1.803C16.906 35.607 16 33.15 16 29.83c0-2.52.68-4.588 2.042-6.201 1.472-1.753 3.502-2.63 6.09-2.63 2.207 0 3.92.57 5.14 1.71zm4.885 12.101c.526-1.062 1.553-2.028 3.08-2.897l2.28-1.292c1.02-.581 1.737-1.078 2.148-1.489.65-.644.974-1.38.974-2.21 0-.97-.297-1.74-.89-2.31-.594-.57-1.385-.855-2.375-.855-1.464 0-2.477.543-3.039 1.629-.3.581-.466 1.388-.498 2.42h-2.172c.023-1.45.296-2.634.819-3.55.926-1.613 2.56-2.42 4.902-2.42 1.947 0 3.37.517 4.268 1.548C44.55 24.417 45 25.565 45 26.83c0 1.335-.479 2.475-1.436 3.421-.554.55-1.547 1.218-2.98 2.001l-1.626.885c-.776.419-1.385.818-1.828 1.198-.792.675-1.29 1.424-1.496 2.246h9.283v1.978H33.248c.08-1.435.382-2.684.908-3.747z"/></g></svg>