<svg xmlns="http://www.w3.org/2000/svg" width="60" height="60" viewBox="0 0 60 60"><g fill="none" fill-rule="evenodd"><circle cx="30" cy="30" r="30" fill="#FF7A41"/><path fill="#FFF" d="M29.282 22.71c1.22 1.14 1.897 2.436 2.032 3.887h-2.305c-.261-1.102-.782-1.975-1.562-2.618-.78-.644-1.875-.966-3.285-.966-1.719 0-3.107.591-4.164 1.774-1.058 1.183-1.586 2.996-1.586 5.44 0 2.001.477 3.624 1.431 4.87.955 1.244 2.378 1.867 4.271 1.867 1.743 0 3.07-.656 3.98-1.967.483-.69.844-1.598 1.081-2.722h2.305c-.206 1.8-.887 3.308-2.043 4.526C28.05 38.267 26.18 39 23.829 39c-2.027 0-3.73-.601-5.108-1.803C16.907 35.607 16 33.15 16 29.83c0-2.52.681-4.588 2.043-6.201 1.474-1.753 3.505-2.63 6.095-2.63 2.21 0 3.925.57 5.144 1.71zm6.226 11.6c.142 1.196.708 2.022 1.698 2.48.507.232 1.093.348 1.759.348 1.267 0 2.206-.395 2.815-1.186.61-.792.915-1.668.915-2.63 0-1.164-.362-2.063-1.087-2.7-.725-.636-1.594-.954-2.608-.954-.736 0-1.368.14-1.895.42-.526.279-.976.666-1.348 1.163l-1.853-.105 1.295-8.97h8.839V24.2h-7.235l-.725 4.63a5.338 5.338 0 0 1 1.128-.663c.634-.256 1.367-.384 2.198-.384 1.56 0 2.883.493 3.968 1.478S45 31.495 45 33.008c0 1.574-.497 2.963-1.491 4.165-.994 1.203-2.58 1.804-4.758 1.804-1.386 0-2.612-.382-3.677-1.146-1.065-.764-1.661-1.938-1.788-3.52h2.222z"/></g></svg>