<svg height="40" viewBox="0 0 22.495 40" width="22.495" xmlns="http://www.w3.org/2000/svg"><path d="m16.377 18.234-8.437-2.468a2.3 2.3 0 0 1 .648-4.516h5.18a4.769 4.769 0 0 1 2.672.82 1.218 1.218 0 0 0 1.523-.156l2.719-2.656a1.266 1.266 0 0 0 -.141-1.914 11.047 11.047 0 0 0 -6.757-2.344v-3.75a1.254 1.254 0 0 0 -1.25-1.25h-2.5a1.254 1.254 0 0 0 -1.25 1.25v3.75h-.2a8.56 8.56 0 0 0 -8.511 9.344 8.943 8.943 0 0 0 6.547 7.547l8.008 2.344a2.3 2.3 0 0 1 -.648 4.516h-5.18a4.769 4.769 0 0 1 -2.672-.82 1.218 1.218 0 0 0 -1.523.156l-2.72 2.655a1.266 1.266 0 0 0 .141 1.914 11.047 11.047 0 0 0 6.758 2.344v3.75a1.254 1.254 0 0 0 1.25 1.25h2.5a1.254 1.254 0 0 0 1.25-1.25v-3.766a8.825 8.825 0 0 0 8.258-5.68 8.579 8.579 0 0 0 -5.664-11.07z" fill="#ff6547" transform="translate(-.037)"/></svg>