<svg xmlns="http://www.w3.org/2000/svg" xmlns:xlink="http://www.w3.org/1999/xlink" width="98" height="91" viewBox="0 0 98 91"><defs><filter id="a" width="126.2%" height="124.1%" x="-13.1%" y="-10.1%" filterUnits="objectBoundingBox"><feOffset dy="2" in="SourceAlpha" result="shadowOffsetOuter1"/><feGaussianBlur in="shadowOffsetOuter1" result="shadowBlurOuter1" stdDeviation="2"/><feColorMatrix in="shadowBlurOuter1" result="shadowMatrixOuter1" values="0 0 0 0 0 0 0 0 0 0 0 0 0 0 0 0 0 0 0.5 0"/><feMerge><feMergeNode in="shadowMatrixOuter1"/><feMergeNode in="SourceGraphic"/></feMerge></filter><path id="b" d="M42.847 0L.015 31.267l42.832 34.266 41.007-34.266z"/><path id="d" d="M42.77 46.77v4.615c1.722-.213 3.076-1.209 3.076-2.36 0-1.387-1.687-1.991-3.077-2.256zm-3.847-3.044c0 1.395 1.57 2.008 3.077 2.274v-4.615c-1.709.158-3.077 1.168-3.077 2.341zm23.32 4.1c-2.303-9.693-8.296-17.342-15.27-19.496l-9.576-.022-.15.022c-6.713 1.865-12.634 9.709-14.727 19.507-1.108 5.179-.444 9.331 1.982 12.334C27.621 64.041 33.636 66 42.382 66c8.125 0 14.65-2.376 17.912-6.511 2.404-3.054 3.063-6.978 1.95-11.663zm-20.705 6.079V52.54c-2.328-.173-4.153-1.638-4.153-3.42 0-.307.248-.557.553-.557.304 0 .553.25.553.557 0 1.158 1.355 2.144 3.047 2.3v-4.662c-3.595-.574-4.153-2.334-4.153-3.36 0-1.776 1.825-3.247 4.153-3.42v-1.113c0-.307.25-.557.553-.557.304 0 .553.25.553.557V40c2.24.234 3.971 1.666 3.971 3.398a.553.553 0 1 1-1.106 0c0-1.114-1.26-2.072-2.865-2.278v4.684c3.435.602 3.971 2.312 3.971 3.315 0 1.732-1.73 3.17-3.97 3.403v1.382a.557.557 0 0 1-.554.557.557.557 0 0 1-.553-.557zm11.865-36.04c-.474-.867-1.945-.855-3.095-.402l-.102.04c-1.663.654-2.824 1.016-3.738.086-1.477-1.503-4.03-2.312-6.415-.723-1.64 1.09-3.259.896-4.634.557-1.601-.39-2.892-.115-3.298.7-.186.39-.322 1.193.902 2.22 1.685 1.406 4.267 6.817 4.296 6.874l.152.321h10.26l.136-.372c.016-.046 1.877-4.992 4.25-6.811 1.24-.941 1.669-1.779 1.286-2.49zm-14.937 3.58a.597.597 0 0 1 .779.236c.034.06.802 1.49 1.195 2.852a.54.54 0 0 1-.399.676.509.509 0 0 1-.155.022.57.57 0 0 1-.555-.401c-.369-1.259-1.108-2.632-1.114-2.643a.54.54 0 0 1 .249-.742zm7.3.811c-.278.461-.912 2.025-1.08 3.248a.577.577 0 0 1-.57.496c-.024 0-.052 0-.081-.006a.578.578 0 0 1-.49-.652c.196-1.407.894-3.115 1.228-3.674a.577.577 0 1 1 .992.588z"/><filter id="c" width="134.3%" height="128%" x="-17.2%" filterUnits="objectBoundingBox"><feOffset dy="2" in="SourceAlpha" result="shadowOffsetOuter1"/><feGaussianBlur in="shadowOffsetOuter1" result="shadowBlurOuter1" stdDeviation="2"/><feColorMatrix in="shadowBlurOuter1" values="0 0 0 0 0 0 0 0 0 0 0 0 0 0 0 0 0 0 0.5 0"/></filter><path id="e" d="M0 32.04v46.643h83.849V32L42.734 65.555z"/></defs><g fill="none" fill-rule="evenodd" filter="url(#a)" transform="translate(7 4)"><use fill="#FF4B2E" xlink:href="#b"/><path stroke="#FFF" stroke-width="2" d="M42.86-1.248l42.596 32.479-42.595 35.593L-1.63 31.23 42.86-1.248z"/><use fill="#000" filter="url(#c)" xlink:href="#d"/><use fill="#FFF" xlink:href="#d"/><use fill="#FF4B2E" xlink:href="#e"/><path stroke="#FFF" stroke-width="2" d="M42.722 64.274l42.127-34.38v49.79H-1v-49.7l43.722 34.29z"/></g></svg>