<svg xmlns="http://www.w3.org/2000/svg" width="50" height="50" viewBox="0 0 50 50"><g fill="none" fill-rule="evenodd"><circle cx="25" cy="25" r="25" fill="#FF4B2E"/><path d="M38.626 16.752a.859.859 0 0 0-.68-.333H16.1l-.954-3.67a.859.859 0 0 0-.832-.644H9.86a.859.859 0 0 0 0 1.718h3.791l.954 3.67L17.97 30.43c.098.379.44.643.831.643h15.781a.859.859 0 0 0 .831-.643l3.365-12.935a.858.858 0 0 0-.151-.742zM22.498 29.355h-3.034l-.675-2.594h3.709v2.594zm0-4.312h-4.155l-.675-2.595h4.83v2.595zm0-4.313H17.22l-.675-2.594h5.952v2.594zm6.669 8.625h-4.952V26.76h4.952v2.594zm0-4.312h-4.952v-2.595h4.952v2.595zm0-4.313h-4.952v-2.594h4.952v2.594zm4.75 8.625h-3.033V26.76h3.708l-.675 2.594zm1.122-4.312h-4.155v-2.595h4.83l-.675 2.595zm1.122-4.313h-5.277v-2.594h5.952l-.675 2.594zM21.078 31.77a3.14 3.14 0 0 0-3.137 3.138 3.14 3.14 0 0 0 3.137 3.137 3.14 3.14 0 0 0 3.137-3.137 3.14 3.14 0 0 0-3.137-3.137zm0 4.558c-.782 0-1.42-.637-1.42-1.42 0-.783.638-1.42 1.42-1.42a1.421 1.421 0 0 1 0 2.84zm11.225-4.557a3.14 3.14 0 0 0-3.136 3.137 3.14 3.14 0 0 0 3.136 3.137 3.14 3.14 0 0 0 3.137-3.137 3.14 3.14 0 0 0-3.137-3.137zm0 4.557a1.42 1.42 0 0 1 0-2.84c.783 0 1.42.637 1.42 1.42 0 .783-.637 1.42-1.42 1.42z" fill="#FFF"/></g></svg>