<svg height="40" viewBox="0 0 45.715 40" width="45.715" xmlns="http://www.w3.org/2000/svg"><path d="m21.425 37.714h5.714a1.429 1.429 0 0 0 1.429-1.429v-2.856a1.429 1.429 0 0 0 -1.429-1.429h-5.714a1.429 1.429 0 0 0 -1.425 1.429v2.857a1.429 1.429 0 0 0 1.425 1.428zm0 11.429h11.428a1.429 1.429 0 0 0 1.429-1.429v-2.857a1.429 1.429 0 0 0 -1.429-1.429h-11.428a1.429 1.429 0 0 0 -1.425 1.429v2.857a1.429 1.429 0 0 0 1.425 1.429zm22.857 17.143h-22.857a1.429 1.429 0 0 0 -1.425 1.428v2.857a1.429 1.429 0 0 0 1.425 1.429h22.857a1.429 1.429 0 0 0 1.429-1.429v-2.857a1.429 1.429 0 0 0 -1.429-1.428zm-22.857-5.715h17.142a1.429 1.429 0 0 0 1.433-1.428v-2.857a1.429 1.429 0 0 0 -1.429-1.429h-17.146a1.429 1.429 0 0 0 -1.425 1.429v2.857a1.429 1.429 0 0 0 1.425 1.428zm-20-17.143h4.285v27.143a1.429 1.429 0 0 0 1.429 1.429h2.861a1.429 1.429 0 0 0 1.429-1.429v-27.142h4.281a1.429 1.429 0 0 0 1.01-2.438l-7.143-8.572a1.429 1.429 0 0 0 -2.02 0l-7.142 8.571a1.43 1.43 0 0 0 1.01 2.439z" fill="#ff6547" transform="translate(.004 -32)"/></svg>